<svg xmlns="http://www.w3.org/2000/svg" width="334" height="414" viewBox="0 0 334 414"><rect width="100%" height="100%" fill="#11151b"/><text x="18" y="24" fill="#f0f3f7" font-family="monospace" font-size="14">R1.7B Baked Cavity and Macro-Normal Strength — bounded 5×10 projection</text><text x="18" y="44" fill="#9ca7b5" font-family="monospace" font-size="10">Source SHA-256: 4fb1c6379500d1ea81c68fbf3896e82f9faf49005dbcc9052461940638ca8bee</text><text x="18" y="78" fill="#dce3ea" font-family="monospace" font-size="11">CAVITY_RESPONSE [0.9371, 0.9991]</text><rect x="18" y="90" width="27" height="27" fill="rgb(56,88,165)"/><rect x="46" y="90" width="27" height="27" fill="rgb(36,55,180)"/><rect x="74" y="90" width="27" height="27" fill="rgb(60,95,162)"/><rect x="102" y="90" width="27" height="27" fill="rgb(115,191,121)"/><rect x="130" y="90" width="27" height="27" fill="rgb(116,192,120)"/><rect x="18" y="118" width="27" height="27" fill="rgb(163,138,85)"/><rect x="46" y="118" width="27" height="27" fill="rgb(144,171,99)"/><rect x="74" y="118" width="27" height="27" fill="rgb(125,204,113)"/><rect x="102" y="118" width="27" height="27" fill="rgb(98,160,134)"/><rect x="130" y="118" width="27" height="27" fill="rgb(62,98,161)"/><rect x="18" y="146" width="27" height="27" fill="rgb(176,115,75)"/><rect x="46" y="146" width="27" height="27" fill="rgb(179,112,73)"/><rect x="74" y="146" width="27" height="27" fill="rgb(180,109,72)"/><rect x="102" y="146" width="27" height="27" fill="rgb(177,114,74)"/><rect x="130" y="146" width="27" height="27" fill="rgb(180,109,72)"/><rect x="18" y="174" width="27" height="27" fill="rgb(194,85,62)"/><rect x="46" y="174" width="27" height="27" fill="rgb(194,85,61)"/><rect x="74" y="174" width="27" height="27" fill="rgb(195,84,61)"/><rect x="102" y="174" width="27" height="27" fill="rgb(195,83,61)"/><rect x="130" y="174" width="27" height="27" fill="rgb(195,83,61)"/><rect x="18" y="202" width="27" height="27" fill="rgb(205,65,53)"/><rect x="46" y="202" width="27" height="27" fill="rgb(206,65,53)"/><rect x="74" y="202" width="27" height="27" fill="rgb(206,64,52)"/><rect x="102" y="202" width="27" height="27" fill="rgb(207,63,52)"/><rect x="130" y="202" width="27" height="27" fill="rgb(207,63,52)"/><rect x="18" y="230" width="27" height="27" fill="rgb(210,58,50)"/><rect x="46" y="230" width="27" height="27" fill="rgb(210,58,50)"/><rect x="74" y="230" width="27" height="27" fill="rgb(210,57,49)"/><rect x="102" y="230" width="27" height="27" fill="rgb(210,57,49)"/><rect x="130" y="230" width="27" height="27" fill="rgb(210,57,49)"/><rect x="18" y="258" width="27" height="27" fill="rgb(211,56,49)"/><rect x="46" y="258" width="27" height="27" fill="rgb(211,56,49)"/><rect x="74" y="258" width="27" height="27" fill="rgb(211,57,49)"/><rect x="102" y="258" width="27" height="27" fill="rgb(210,57,49)"/><rect x="130" y="258" width="27" height="27" fill="rgb(210,57,49)"/><rect x="18" y="286" width="27" height="27" fill="rgb(211,57,49)"/><rect x="46" y="286" width="27" height="27" fill="rgb(210,57,49)"/><rect x="74" y="286" width="27" height="27" fill="rgb(211,57,49)"/><rect x="102" y="286" width="27" height="27" fill="rgb(211,56,49)"/><rect x="130" y="286" width="27" height="27" fill="rgb(211,56,49)"/><rect x="18" y="314" width="27" height="27" fill="rgb(208,60,51)"/><rect x="46" y="314" width="27" height="27" fill="rgb(209,60,51)"/><rect x="74" y="314" width="27" height="27" fill="rgb(209,59,50)"/><rect x="102" y="314" width="27" height="27" fill="rgb(209,59,50)"/><rect x="130" y="314" width="27" height="27" fill="rgb(209,59,50)"/><rect x="18" y="342" width="27" height="27" fill="rgb(203,69,55)"/><rect x="46" y="342" width="27" height="27" fill="rgb(203,69,55)"/><rect x="74" y="342" width="27" height="27" fill="rgb(203,69,54)"/><rect x="102" y="342" width="27" height="27" fill="rgb(203,69,55)"/><rect x="130" y="342" width="27" height="27" fill="rgb(203,70,55)"/><text x="176" y="78" fill="#dce3ea" font-family="monospace" font-size="11">MACRO_NORMAL_STRENGTH [0.0002, 0.0153]</text><rect x="176" y="90" width="27" height="27" fill="rgb(179,112,73)"/><rect x="204" y="90" width="27" height="27" fill="rgb(205,67,53)"/><rect x="232" y="90" width="27" height="27" fill="rgb(184,102,69)"/><rect x="260" y="90" width="27" height="27" fill="rgb(196,81,60)"/><rect x="288" y="90" width="27" height="27" fill="rgb(212,54,48)"/><rect x="176" y="118" width="27" height="27" fill="rgb(110,181,125)"/><rect x="204" y="118" width="27" height="27" fill="rgb(134,189,106)"/><rect x="232" y="118" width="27" height="27" fill="rgb(161,142,86)"/><rect x="260" y="118" width="27" height="27" fill="rgb(177,114,74)"/><rect x="288" y="118" width="27" height="27" fill="rgb(184,103,69)"/><rect x="176" y="146" width="27" height="27" fill="rgb(81,131,146)"/><rect x="204" y="146" width="27" height="27" fill="rgb(80,129,147)"/><rect x="232" y="146" width="27" height="27" fill="rgb(78,126,149)"/><rect x="260" y="146" width="27" height="27" fill="rgb(78,126,149)"/><rect x="288" y="146" width="27" height="27" fill="rgb(76,123,150)"/><rect x="176" y="174" width="27" height="27" fill="rgb(60,96,162)"/><rect x="204" y="174" width="27" height="27" fill="rgb(60,96,162)"/><rect x="232" y="174" width="27" height="27" fill="rgb(59,94,162)"/><rect x="260" y="174" width="27" height="27" fill="rgb(59,93,163)"/><rect x="288" y="174" width="27" height="27" fill="rgb(58,93,163)"/><rect x="176" y="202" width="27" height="27" fill="rgb(43,67,174)"/><rect x="204" y="202" width="27" height="27" fill="rgb(43,66,175)"/><rect x="232" y="202" width="27" height="27" fill="rgb(42,65,175)"/><rect x="260" y="202" width="27" height="27" fill="rgb(42,64,176)"/><rect x="288" y="202" width="27" height="27" fill="rgb(42,64,176)"/><rect x="176" y="230" width="27" height="27" fill="rgb(39,59,178)"/><rect x="204" y="230" width="27" height="27" fill="rgb(39,59,178)"/><rect x="232" y="230" width="27" height="27" fill="rgb(39,59,178)"/><rect x="260" y="230" width="27" height="27" fill="rgb(39,59,178)"/><rect x="288" y="230" width="27" height="27" fill="rgb(39,59,178)"/><rect x="176" y="258" width="27" height="27" fill="rgb(36,55,180)"/><rect x="204" y="258" width="27" height="27" fill="rgb(37,55,179)"/><rect x="232" y="258" width="27" height="27" fill="rgb(37,56,179)"/><rect x="260" y="258" width="27" height="27" fill="rgb(37,56,179)"/><rect x="288" y="258" width="27" height="27" fill="rgb(37,56,179)"/><rect x="176" y="286" width="27" height="27" fill="rgb(39,59,178)"/><rect x="204" y="286" width="27" height="27" fill="rgb(39,59,178)"/><rect x="232" y="286" width="27" height="27" fill="rgb(39,59,178)"/><rect x="260" y="286" width="27" height="27" fill="rgb(39,58,178)"/><rect x="288" y="286" width="27" height="27" fill="rgb(38,58,178)"/><rect x="176" y="314" width="27" height="27" fill="rgb(41,62,176)"/><rect x="204" y="314" width="27" height="27" fill="rgb(41,62,176)"/><rect x="232" y="314" width="27" height="27" fill="rgb(41,62,176)"/><rect x="260" y="314" width="27" height="27" fill="rgb(41,62,176)"/><rect x="288" y="314" width="27" height="27" fill="rgb(41,62,176)"/><rect x="176" y="342" width="27" height="27" fill="rgb(43,66,175)"/><rect x="204" y="342" width="27" height="27" fill="rgb(43,66,175)"/><rect x="232" y="342" width="27" height="27" fill="rgb(43,66,175)"/><rect x="260" y="342" width="27" height="27" fill="rgb(43,67,175)"/><rect x="288" y="342" width="27" height="27" fill="rgb(43,67,174)"/><text x="18" y="390" fill="#9ca7b5" font-family="monospace" font-size="10">Documented downsampled projection of exact workflow capture; engineering evidence only.</text></svg>
